<?xml version="1.0" standalone="no"?>
<!DOCTYPE svg PUBLIC "-//W3C//DTD SVG 20010904//EN"
 "http://www.w3.org/TR/2001/REC-SVG-20010904/DTD/svg10.dtd">
<svg version="1.0" xmlns="http://www.w3.org/2000/svg"
 width="512.000000pt" height="512.000000pt" viewBox="0 0 512.000000 512.000000"
 preserveAspectRatio="xMidYMid meet">
<metadata>
Created by potrace 1.14, written by Peter Selinger 2001-2017
</metadata>
<g transform="translate(0.000000,512.000000) scale(0.100000,-0.100000)"
fill="#000000" stroke="none">
<path d="M2470 4613 c-439 -38 -888 -225 -1232 -512 -419 -351 -684 -813 -782
-1366 -28 -157 -29 -543 -1 -695 3 -14 7 -41 10 -60 3 -19 8 -42 10 -50 2 -8
7 -29 9 -45 3 -17 19 -77 36 -134 116 -389 312 -710 612 -998 342 -330 803
-544 1288 -600 151 -18 483 -9 620 16 30 6 69 13 85 15 74 13 282 74 360 106
538 222 947 599 1199 1107 72 144 159 404 181 534 3 19 7 45 10 59 7 38 16 91
21 130 12 84 11 401 -1 505 -64 530 -287 986 -662 1352 -422 412 -952 632
-1538 637 -104 1 -206 0 -225 -1z m390 -218 c283 -32 477 -88 712 -205 832
-413 1277 -1347 1074 -2255 -19 -87 -29 -122 -56 -205 -41 -123 -152 -350
-227 -465 -297 -450 -775 -772 -1304 -875 -169 -33 -488 -46 -614 -26 -22 4
-71 11 -110 17 -456 69 -915 333 -1219 699 -225 271 -382 605 -440 935 -3 17
-8 41 -11 54 -18 91 -25 381 -12 511 74 752 576 1411 1288 1688 96 38 258 85
333 97 17 3 56 10 86 15 30 5 91 13 135 16 44 3 81 7 82 8 5 4 234 -3 283 -9z"/>
<path d="M1064 3276 c-32 -14 -44 -33 -44 -68 0 -24 515 -1562 552 -1648 20
-46 48 -70 92 -77 32 -5 40 -2 70 31 19 20 43 59 54 88 10 29 58 163 106 298
49 135 98 272 111 305 13 33 63 170 111 305 48 135 103 288 121 340 113 311
125 351 113 380 -6 15 -21 32 -34 38 -35 16 -104 8 -125 -14 -21 -22 -18 -13
-255 -689 -241 -687 -254 -727 -259 -731 -2 -2 -109 314 -238 702 -157 474
-241 714 -256 730 -25 27 -70 31 -119 10z"/>
<path d="M2655 3272 c-27 -6 -45 -22 -55 -48 -7 -18 -20 -865 -24 -1517 l-1
-189 28 -24 c33 -28 83 -32 126 -9 49 25 43 -82 56 1083 3 343 3 636 0 651 -9
42 -68 66 -130 53z"/>
<path d="M3253 3229 c-48 -25 -45 40 -57 -1218 -6 -520 -6 -519 53 -539 33
-12 89 -6 109 11 32 26 35 56 38 356 2 167 6 306 9 309 2 3 118 5 257 6 247 2
255 2 331 29 225 78 317 224 322 507 2 143 -11 215 -55 306 -54 110 -143 177
-287 215 -69 18 -114 21 -388 25 -213 2 -317 0 -332 -7z m622 -184 c53 -11
119 -45 153 -78 69 -66 93 -148 88 -297 -7 -187 -65 -281 -200 -322 -70 -21
-138 -24 -442 -19 l-72 1 4 293 c1 160 3 325 3 365 l1 74 218 -5 c119 -3 231
-8 247 -12z"/>
</g>
</svg>
